<svg width="391" height="121" viewBox="0 0 391 121" fill="none" xmlns="http://www.w3.org/2000/svg">
<path d="M390.922 64.9609C390.922 29.084 361.838 0 325.961 0V0C290.084 0 261 29.084 261 64.9609V120.906L390.922 120.906V64.9609Z" fill="#E4E4E4"/>
<path d="M260 21.6885C260 57.5654 230.916 86.6494 195.039 86.6494V86.6494C159.162 86.6494 130.078 57.5654 130.078 21.6885V6.04528L260 6.04528V21.6885Z" fill="#E4E4E4"/>
<path d="M231 121L158 121V75H231V121Z" fill="#E4E4E4"/>
<path d="M129.922 64.9609C129.922 29.084 100.838 0 64.961 0V0C29.084 0 6.10352e-05 29.084 6.10352e-05 64.9609V120.906L129.922 120.906V64.9609Z" fill="#E4E4E4"/>
</svg>
