<svg width="165" height="33" viewBox="0 0 165 33" fill="none" xmlns="http://www.w3.org/2000/svg">
<path d="M134 17.2821C134 7.73745 126.263 0 116.718 0V0C107.173 0 99.4358 7.73746 99.4358 17.2821V32.1657L134 32.1657V17.2821Z" fill="#E4E4E4"/>
<path d="M99.1489 5.77015C99.1489 15.3148 91.4115 23.0522 81.8668 23.0522V23.0522C72.3222 23.0522 64.5847 15.3148 64.5847 5.77015V1.60845L99.1489 1.60845V5.77015Z" fill="#E4E4E4"/>
<path d="M92.0952 32.4004H71.3567V20.0702H92.0952V32.4004Z" fill="#E4E4E4"/>
<path d="M64.564 17.2821C64.564 7.73745 56.8265 0 47.2819 0V0C37.7372 0 29.9998 7.73746 29.9998 17.2821V32.1657L64.564 32.1657V17.2821Z" fill="#E4E4E4"/>
<path d="M1.88477 12.4766H4.77539V13.4531C5.49805 13.0104 6.20117 12.7044 6.88477 12.5352C7.57487 12.3594 8.2487 12.2715 8.90625 12.2715C9.82422 12.2715 10.6673 12.418 11.4355 12.7109C12.2038 13.0039 12.8613 13.4466 13.4082 14.0391C13.8314 13.7135 14.248 13.4401 14.6582 13.2188C15.0684 12.9909 15.4785 12.8086 15.8887 12.6719C16.2988 12.5286 16.7155 12.4277 17.1387 12.3691C17.5618 12.304 17.998 12.2715 18.4473 12.2715C19.3913 12.2715 20.2474 12.4017 21.0156 12.6621C21.7839 12.916 22.4382 13.2969 22.9785 13.8047C23.5254 14.3125 23.9453 14.9473 24.2383 15.709C24.5378 16.4642 24.6875 17.3398 24.6875 18.3359V24H21.8066V18.8047C21.8066 18.1732 21.7155 17.61 21.5332 17.1152C21.3574 16.6139 21.1068 16.194 20.7812 15.8555C20.4622 15.5104 20.0781 15.25 19.6289 15.0742C19.1862 14.8919 18.6979 14.8008 18.1641 14.8008C17.8711 14.8008 17.5716 14.8301 17.2656 14.8887C16.9596 14.9408 16.6602 15.0254 16.3672 15.1426C16.0807 15.2598 15.8105 15.4095 15.5566 15.5918C15.3027 15.7676 15.0814 15.9759 14.8926 16.2168V24H12.0117V18.8047C12.0117 18.1732 11.9206 17.61 11.7383 17.1152C11.5625 16.6139 11.3118 16.194 10.9863 15.8555C10.6673 15.5104 10.2799 15.25 9.82422 15.0742C9.375 14.8919 8.88021 14.8008 8.33984 14.8008C8.00781 14.8008 7.67253 14.8366 7.33398 14.9082C7.00195 14.9733 6.67969 15.0677 6.36719 15.1914C6.0612 15.3151 5.77148 15.4648 5.49805 15.6406C5.23112 15.8164 4.99023 16.015 4.77539 16.2363V24H1.88477V12.4766ZM27.7832 20.3672C27.7832 19.8138 27.9036 19.3092 28.1445 18.8535C28.3854 18.3978 28.7467 18.0072 29.2285 17.6816C29.7103 17.3496 30.3092 17.0957 31.0254 16.9199C31.748 16.7376 32.5879 16.6465 33.5449 16.6465C34.2546 16.6465 35 16.6986 35.7812 16.8027C36.569 16.9069 37.3796 17.0664 38.2129 17.2812C38.1803 16.9167 38.0697 16.5814 37.8809 16.2754C37.6921 15.9629 37.4284 15.696 37.0898 15.4746C36.7578 15.2467 36.3542 15.071 35.8789 14.9473C35.4102 14.8236 34.8763 14.7617 34.2773 14.7617C33.9518 14.7617 33.5938 14.7812 33.2031 14.8203C32.8125 14.8594 32.4089 14.918 31.9922 14.9961C31.5755 15.0742 31.1621 15.1719 30.752 15.2891C30.3483 15.4062 29.9707 15.5462 29.6191 15.709L28.7402 13.3359C29.1764 13.1797 29.6419 13.0365 30.1367 12.9062C30.638 12.776 31.1491 12.6654 31.6699 12.5742C32.1908 12.4766 32.7116 12.4017 33.2324 12.3496C33.7533 12.2975 34.2578 12.2715 34.7461 12.2715C36.901 12.2715 38.5026 12.8216 39.5508 13.9219C40.599 15.0221 41.123 16.7083 41.123 18.9805V24H38.2324V22.916C37.9329 23.0918 37.6042 23.2578 37.2461 23.4141C36.8945 23.5703 36.5104 23.707 36.0938 23.8242C35.6771 23.9414 35.2279 24.0326 34.7461 24.0977C34.2708 24.1693 33.7663 24.2051 33.2324 24.2051C32.334 24.2051 31.543 24.1074 30.8594 23.9121C30.1823 23.7168 29.6159 23.4466 29.1602 23.1016C28.7044 22.7565 28.3594 22.3529 28.125 21.8906C27.8971 21.4219 27.7832 20.9141 27.7832 20.3672ZM30.8301 20.2695C30.8301 20.4583 30.8789 20.6406 30.9766 20.8164C31.0742 20.9857 31.2305 21.1387 31.4453 21.2754C31.6602 21.4056 31.9336 21.513 32.2656 21.5977C32.6042 21.6758 33.0111 21.7148 33.4863 21.7148C33.9941 21.7148 34.4857 21.6693 34.9609 21.5781C35.4362 21.487 35.8789 21.3665 36.2891 21.2168C36.6992 21.0671 37.0703 20.8945 37.4023 20.6992C37.7344 20.5039 38.0111 20.3021 38.2324 20.0938V19.5859C37.7897 19.4622 37.3503 19.3581 36.9141 19.2734C36.4844 19.1888 36.071 19.1237 35.6738 19.0781C35.2832 19.026 34.9121 18.9902 34.5605 18.9707C34.2155 18.9512 33.9128 18.9414 33.6523 18.9414C33.112 18.9414 32.6628 18.9772 32.3047 19.0488C31.9466 19.1204 31.6569 19.2181 31.4355 19.3418C31.2142 19.459 31.0579 19.599 30.9668 19.7617C30.8757 19.9245 30.8301 20.0938 30.8301 20.2695ZM45.4102 20.4648C46.1914 20.9336 47.0508 21.2786 47.9883 21.5C48.9258 21.7214 49.8861 21.832 50.8691 21.832C51.5332 21.832 52.0866 21.7865 52.5293 21.6953C52.972 21.6042 53.3268 21.487 53.5938 21.3438C53.8607 21.2005 54.0495 21.0378 54.1602 20.8555C54.2708 20.6732 54.3262 20.4876 54.3262 20.2988C54.3262 20.0254 54.2057 19.791 53.9648 19.5957C53.7305 19.4004 53.3398 19.3027 52.793 19.3027C52.5391 19.3027 52.2656 19.319 51.9727 19.3516C51.6797 19.3841 51.3704 19.4199 51.0449 19.459C50.7259 19.4915 50.3906 19.5241 50.0391 19.5566C49.694 19.5892 49.3424 19.6055 48.9844 19.6055C48.2031 19.6055 47.5358 19.5208 46.9824 19.3516C46.4355 19.1823 45.9896 18.9512 45.6445 18.6582C45.2995 18.3652 45.0488 18.0202 44.8926 17.623C44.7363 17.2194 44.6582 16.7865 44.6582 16.3242C44.6582 15.7383 44.7949 15.1979 45.0684 14.7031C45.3418 14.2083 45.7324 13.7819 46.2402 13.4238C46.748 13.0592 47.36 12.776 48.0762 12.5742C48.7988 12.3724 49.6029 12.2715 50.4883 12.2715C50.9505 12.2715 51.4323 12.3008 51.9336 12.3594C52.4414 12.4115 52.9395 12.4831 53.4277 12.5742C53.916 12.6654 54.3848 12.7728 54.834 12.8965C55.2832 13.0137 55.6803 13.1406 56.0254 13.2773L55.1172 15.5234C54.3815 15.25 53.6458 15.0352 52.9102 14.8789C52.181 14.7161 51.429 14.6348 50.6543 14.6348C50.1139 14.6348 49.6549 14.6771 49.2773 14.7617C48.9062 14.8398 48.6035 14.9473 48.3691 15.084C48.1348 15.2142 47.9622 15.3672 47.8516 15.543C47.7474 15.7122 47.6953 15.8913 47.6953 16.0801C47.6953 16.2168 47.7214 16.3405 47.7734 16.4512C47.832 16.5618 47.9232 16.6595 48.0469 16.7441C48.1771 16.8223 48.3431 16.8841 48.5449 16.9297C48.7533 16.9688 49.0072 16.9883 49.3066 16.9883C49.5801 16.9883 49.8698 16.972 50.1758 16.9395C50.4818 16.9069 50.8008 16.8743 51.1328 16.8418C51.4648 16.8027 51.8066 16.7669 52.1582 16.7344C52.5163 16.7018 52.8809 16.6855 53.252 16.6855C53.9421 16.6855 54.5443 16.7669 55.0586 16.9297C55.5794 17.0924 56.0091 17.3203 56.3477 17.6133C56.6862 17.9062 56.9401 18.2513 57.1094 18.6484C57.2786 19.0456 57.3633 19.4785 57.3633 19.9473C57.3633 20.5527 57.2233 21.1159 56.9434 21.6367C56.6634 22.1576 56.2467 22.61 55.6934 22.9941C55.14 23.3717 54.4499 23.668 53.623 23.8828C52.8027 24.0977 51.8522 24.2051 50.7715 24.2051C50.1074 24.2051 49.4661 24.1628 48.8477 24.0781C48.2292 24 47.64 23.8926 47.0801 23.7559C46.5202 23.6126 45.9928 23.4466 45.498 23.2578C45.0098 23.069 44.5638 22.8672 44.1602 22.6523L45.4102 20.4648ZM59.9707 7.80859H62.8613V13.3555C63.4668 13.0234 64.1406 12.7598 64.8828 12.5645C65.6315 12.3691 66.416 12.2715 67.2363 12.2715C68.1868 12.2715 69.0397 12.4115 69.7949 12.6914C70.5566 12.9714 71.2012 13.375 71.7285 13.9023C72.2559 14.4232 72.6595 15.0579 72.9395 15.8066C73.2259 16.5553 73.3691 17.3984 73.3691 18.3359V24H70.4883V18.4531C70.4883 17.9062 70.4004 17.4082 70.2246 16.959C70.0488 16.5033 69.7917 16.1126 69.4531 15.7871C69.1146 15.4616 68.7012 15.2109 68.2129 15.0352C67.7311 14.8529 67.1842 14.7617 66.5723 14.7617C65.8366 14.7617 65.153 14.8789 64.5215 15.1133C63.89 15.3477 63.3366 15.6439 62.8613 16.002V24H59.9707V7.80859ZM78.1348 10.9043C77.8483 10.9043 77.5879 10.8652 77.3535 10.7871C77.1257 10.7025 76.9303 10.5918 76.7676 10.4551C76.6048 10.3118 76.4779 10.1491 76.3867 9.9668C76.3021 9.77799 76.2598 9.57943 76.2598 9.37109C76.2598 9.15625 76.3021 8.95768 76.3867 8.77539C76.4779 8.58659 76.6048 8.42383 76.7676 8.28711C76.9303 8.15039 77.1257 8.04297 77.3535 7.96484C77.5879 7.88021 77.8483 7.83789 78.1348 7.83789C78.4277 7.83789 78.6882 7.88021 78.916 7.96484C79.1504 8.04297 79.349 8.15039 79.5117 8.28711C79.6745 8.42383 79.7982 8.58659 79.8828 8.77539C79.974 8.95768 80.0195 9.15625 80.0195 9.37109C80.0195 9.57943 79.974 9.77799 79.8828 9.9668C79.7982 10.1491 79.6745 10.3118 79.5117 10.4551C79.349 10.5918 79.1504 10.7025 78.916 10.7871C78.6882 10.8652 78.4277 10.9043 78.1348 10.9043ZM76.6895 12.4766H79.5801V24H76.6895V12.4766ZM85.0293 14.6445H82.2461V12.4766H85.0293V8.89258H87.9199V12.4766H90.7031V14.6445H87.9199V24H85.0293V14.6445ZM92.7246 20.3672C92.7246 19.8138 92.8451 19.3092 93.0859 18.8535C93.3268 18.3978 93.6882 18.0072 94.1699 17.6816C94.6517 17.3496 95.2507 17.0957 95.9668 16.9199C96.6895 16.7376 97.5293 16.6465 98.4863 16.6465C99.196 16.6465 99.9414 16.6986 100.723 16.8027C101.51 16.9069 102.321 17.0664 103.154 17.2812C103.122 16.9167 103.011 16.5814 102.822 16.2754C102.633 15.9629 102.37 15.696 102.031 15.4746C101.699 15.2467 101.296 15.071 100.82 14.9473C100.352 14.8236 99.8177 14.7617 99.2188 14.7617C98.8932 14.7617 98.5352 14.7812 98.1445 14.8203C97.7539 14.8594 97.3503 14.918 96.9336 14.9961C96.5169 15.0742 96.1035 15.1719 95.6934 15.2891C95.2897 15.4062 94.9121 15.5462 94.5605 15.709L93.6816 13.3359C94.1178 13.1797 94.5833 13.0365 95.0781 12.9062C95.5794 12.776 96.0905 12.6654 96.6113 12.5742C97.1322 12.4766 97.653 12.4017 98.1738 12.3496C98.6947 12.2975 99.1992 12.2715 99.6875 12.2715C101.842 12.2715 103.444 12.8216 104.492 13.9219C105.54 15.0221 106.064 16.7083 106.064 18.9805V24H103.174V22.916C102.874 23.0918 102.546 23.2578 102.188 23.4141C101.836 23.5703 101.452 23.707 101.035 23.8242C100.618 23.9414 100.169 24.0326 99.6875 24.0977C99.2122 24.1693 98.7077 24.2051 98.1738 24.2051C97.2754 24.2051 96.4844 24.1074 95.8008 23.9121C95.1237 23.7168 94.5573 23.4466 94.1016 23.1016C93.6458 22.7565 93.3008 22.3529 93.0664 21.8906C92.8385 21.4219 92.7246 20.9141 92.7246 20.3672ZM95.7715 20.2695C95.7715 20.4583 95.8203 20.6406 95.918 20.8164C96.0156 20.9857 96.1719 21.1387 96.3867 21.2754C96.6016 21.4056 96.875 21.513 97.207 21.5977C97.5456 21.6758 97.9525 21.7148 98.4277 21.7148C98.9355 21.7148 99.4271 21.6693 99.9023 21.5781C100.378 21.487 100.82 21.3665 101.23 21.2168C101.641 21.0671 102.012 20.8945 102.344 20.6992C102.676 20.5039 102.952 20.3021 103.174 20.0938V19.5859C102.731 19.4622 102.292 19.3581 101.855 19.2734C101.426 19.1888 101.012 19.1237 100.615 19.0781C100.225 19.026 99.8535 18.9902 99.502 18.9707C99.1569 18.9512 98.8542 18.9414 98.5938 18.9414C98.0534 18.9414 97.6042 18.9772 97.2461 19.0488C96.888 19.1204 96.5983 19.2181 96.377 19.3418C96.1556 19.459 95.9993 19.599 95.9082 19.7617C95.8171 19.9245 95.7715 20.0938 95.7715 20.2695ZM115.986 20.3672C115.986 19.8138 116.107 19.3092 116.348 18.8535C116.589 18.3978 116.95 18.0072 117.432 17.6816C117.913 17.3496 118.512 17.0957 119.229 16.9199C119.951 16.7376 120.791 16.6465 121.748 16.6465C122.458 16.6465 123.203 16.6986 123.984 16.8027C124.772 16.9069 125.583 17.0664 126.416 17.2812C126.383 16.9167 126.273 16.5814 126.084 16.2754C125.895 15.9629 125.632 15.696 125.293 15.4746C124.961 15.2467 124.557 15.071 124.082 14.9473C123.613 14.8236 123.079 14.7617 122.48 14.7617C122.155 14.7617 121.797 14.7812 121.406 14.8203C121.016 14.8594 120.612 14.918 120.195 14.9961C119.779 15.0742 119.365 15.1719 118.955 15.2891C118.551 15.4062 118.174 15.5462 117.822 15.709L116.943 13.3359C117.38 13.1797 117.845 13.0365 118.34 12.9062C118.841 12.776 119.352 12.6654 119.873 12.5742C120.394 12.4766 120.915 12.4017 121.436 12.3496C121.956 12.2975 122.461 12.2715 122.949 12.2715C125.104 12.2715 126.706 12.8216 127.754 13.9219C128.802 15.0221 129.326 16.7083 129.326 18.9805V24H126.436V22.916C126.136 23.0918 125.807 23.2578 125.449 23.4141C125.098 23.5703 124.714 23.707 124.297 23.8242C123.88 23.9414 123.431 24.0326 122.949 24.0977C122.474 24.1693 121.969 24.2051 121.436 24.2051C120.537 24.2051 119.746 24.1074 119.062 23.9121C118.385 23.7168 117.819 23.4466 117.363 23.1016C116.908 22.7565 116.562 22.3529 116.328 21.8906C116.1 21.4219 115.986 20.9141 115.986 20.3672ZM119.033 20.2695C119.033 20.4583 119.082 20.6406 119.18 20.8164C119.277 20.9857 119.434 21.1387 119.648 21.2754C119.863 21.4056 120.137 21.513 120.469 21.5977C120.807 21.6758 121.214 21.7148 121.689 21.7148C122.197 21.7148 122.689 21.6693 123.164 21.5781C123.639 21.487 124.082 21.3665 124.492 21.2168C124.902 21.0671 125.273 20.8945 125.605 20.6992C125.938 20.5039 126.214 20.3021 126.436 20.0938V19.5859C125.993 19.4622 125.553 19.3581 125.117 19.2734C124.688 19.1888 124.274 19.1237 123.877 19.0781C123.486 19.026 123.115 18.9902 122.764 18.9707C122.419 18.9512 122.116 18.9414 121.855 18.9414C121.315 18.9414 120.866 18.9772 120.508 19.0488C120.15 19.1204 119.86 19.2181 119.639 19.3418C119.417 19.459 119.261 19.599 119.17 19.7617C119.079 19.9245 119.033 20.0938 119.033 20.2695ZM134.531 25.4453C134.831 25.6406 135.156 25.8132 135.508 25.9629C135.859 26.1126 136.224 26.2363 136.602 26.334C136.986 26.4316 137.376 26.5033 137.773 26.5488C138.171 26.6009 138.564 26.627 138.955 26.627C140.283 26.627 141.305 26.3405 142.021 25.7676C142.744 25.2012 143.105 24.3483 143.105 23.209V22.8184C142.852 22.9941 142.565 23.1569 142.246 23.3066C141.934 23.4499 141.595 23.5736 141.23 23.6777C140.872 23.7819 140.492 23.8633 140.088 23.9219C139.691 23.974 139.287 24 138.877 24C137.998 24 137.21 23.873 136.514 23.6191C135.824 23.3587 135.238 22.9811 134.756 22.4863C134.281 21.985 133.916 21.3698 133.662 20.6406C133.408 19.9115 133.281 19.0781 133.281 18.1406V12.4766H136.162V17.3398C136.162 18.7331 136.426 19.7617 136.953 20.4258C137.487 21.0833 138.327 21.4121 139.473 21.4121C140.28 21.4121 140.993 21.2721 141.611 20.9922C142.236 20.7057 142.734 20.3411 143.105 19.8984V12.4766H145.996V22.6816C145.996 23.7819 145.84 24.7357 145.527 25.543C145.215 26.3568 144.759 27.0306 144.16 27.5645C143.568 28.0983 142.839 28.4954 141.973 28.7559C141.107 29.0228 140.124 29.1562 139.023 29.1562C137.949 29.1562 136.947 29.0423 136.016 28.8145C135.085 28.5866 134.232 28.2773 133.457 27.8867L134.531 25.4453ZM149.189 20.3672C149.189 19.8138 149.31 19.3092 149.551 18.8535C149.792 18.3978 150.153 18.0072 150.635 17.6816C151.117 17.3496 151.715 17.0957 152.432 16.9199C153.154 16.7376 153.994 16.6465 154.951 16.6465C155.661 16.6465 156.406 16.6986 157.188 16.8027C157.975 16.9069 158.786 17.0664 159.619 17.2812C159.587 16.9167 159.476 16.5814 159.287 16.2754C159.098 15.9629 158.835 15.696 158.496 15.4746C158.164 15.2467 157.76 15.071 157.285 14.9473C156.816 14.8236 156.283 14.7617 155.684 14.7617C155.358 14.7617 155 14.7812 154.609 14.8203C154.219 14.8594 153.815 14.918 153.398 14.9961C152.982 15.0742 152.568 15.1719 152.158 15.2891C151.755 15.4062 151.377 15.5462 151.025 15.709L150.146 13.3359C150.583 13.1797 151.048 13.0365 151.543 12.9062C152.044 12.776 152.555 12.6654 153.076 12.5742C153.597 12.4766 154.118 12.4017 154.639 12.3496C155.16 12.2975 155.664 12.2715 156.152 12.2715C158.307 12.2715 159.909 12.8216 160.957 13.9219C162.005 15.0221 162.529 16.7083 162.529 18.9805V24H159.639V22.916C159.339 23.0918 159.01 23.2578 158.652 23.4141C158.301 23.5703 157.917 23.707 157.5 23.8242C157.083 23.9414 156.634 24.0326 156.152 24.0977C155.677 24.1693 155.173 24.2051 154.639 24.2051C153.74 24.2051 152.949 24.1074 152.266 23.9121C151.589 23.7168 151.022 23.4466 150.566 23.1016C150.111 22.7565 149.766 22.3529 149.531 21.8906C149.303 21.4219 149.189 20.9141 149.189 20.3672ZM152.236 20.2695C152.236 20.4583 152.285 20.6406 152.383 20.8164C152.48 20.9857 152.637 21.1387 152.852 21.2754C153.066 21.4056 153.34 21.513 153.672 21.5977C154.01 21.6758 154.417 21.7148 154.893 21.7148C155.4 21.7148 155.892 21.6693 156.367 21.5781C156.842 21.487 157.285 21.3665 157.695 21.2168C158.105 21.0671 158.477 20.8945 158.809 20.6992C159.141 20.5039 159.417 20.3021 159.639 20.0938V19.5859C159.196 19.4622 158.757 19.3581 158.32 19.2734C157.891 19.1888 157.477 19.1237 157.08 19.0781C156.689 19.026 156.318 18.9902 155.967 18.9707C155.622 18.9512 155.319 18.9414 155.059 18.9414C154.518 18.9414 154.069 18.9772 153.711 19.0488C153.353 19.1204 153.063 19.2181 152.842 19.3418C152.62 19.459 152.464 19.599 152.373 19.7617C152.282 19.9245 152.236 20.0938 152.236 20.2695Z" fill="black"/>
</svg>
