<svg width="66" height="27" viewBox="0 0 66 27" fill="none" xmlns="http://www.w3.org/2000/svg">
<path d="M0.756 16V15.622C1.404 15.622 1.782 15.502 1.89 15.262V6.208C1.782 5.968 1.404 5.848 0.756 5.848V5.47H4.68V5.848C4.032 5.848 3.654 5.968 3.546 6.208V15.262C3.654 15.502 4.032 15.622 4.68 15.622V16H0.756ZM6.18764 16V15.622C6.83564 15.622 7.21364 15.502 7.32164 15.262V6.208C7.21364 5.968 6.83564 5.848 6.18764 5.848V5.47H10.2556C11.7436 5.47 12.8716 5.74 13.6396 6.28C14.4076 6.82 14.7916 7.438 14.7916 8.134C14.7916 8.794 14.5936 9.376 14.1976 9.88C13.8016 10.372 13.2136 10.732 12.4336 10.96L14.8276 15.244C14.9476 15.496 15.3436 15.622 16.0156 15.622V16H15.2416C14.4016 16 13.8556 15.952 13.6036 15.856C13.3516 15.76 13.0996 15.496 12.8476 15.064L10.6696 11.212H8.97764V15.262C9.08564 15.502 9.46364 15.622 10.1116 15.622V16H6.18764ZM8.97764 6.082V10.6H10.4716C11.4316 10.6 12.0916 10.414 12.4516 10.042C12.8116 9.67 12.9916 9.04 12.9916 8.152C12.9916 7.492 12.7876 6.982 12.3796 6.622C11.9836 6.262 11.2756 6.082 10.2556 6.082H8.97764ZM18.4826 10.6C18.4826 11.392 18.5906 12.154 18.8066 12.886C19.0346 13.606 19.4006 14.236 19.9046 14.776C20.4206 15.304 21.0326 15.568 21.7406 15.568C22.4486 15.568 23.0426 15.316 23.5226 14.812C24.0146 14.308 24.3566 13.72 24.5486 13.048C24.7526 12.364 24.8546 11.644 24.8546 10.888C24.8546 10.108 24.7406 9.352 24.5126 8.62C24.2846 7.876 23.9126 7.24 23.3966 6.712C22.8926 6.172 22.2926 5.902 21.5966 5.902C21.0566 5.902 20.5766 6.046 20.1566 6.334C19.7486 6.622 19.4246 7.006 19.1846 7.486C18.9566 7.954 18.7826 8.452 18.6626 8.98C18.5426 9.508 18.4826 10.048 18.4826 10.6ZM16.6826 10.744C16.6826 9.244 17.1506 7.96 18.0866 6.892C19.0226 5.824 20.2166 5.29 21.6686 5.29C23.1206 5.29 24.3146 5.824 25.2506 6.892C26.1866 7.96 26.6546 9.244 26.6546 10.744C26.6546 12.244 26.1806 13.528 25.2326 14.596C24.2966 15.652 23.1086 16.18 21.6686 16.18C20.2046 16.18 19.0046 15.652 18.0686 14.596C17.1446 13.54 16.6826 12.256 16.6826 10.744ZM28.0548 16V15.622C28.7028 15.622 29.0808 15.502 29.1888 15.262V6.208C29.0808 5.968 28.7028 5.848 28.0548 5.848V5.47H32.1948C33.7908 5.47 35.0748 5.956 36.0468 6.928C37.0188 7.888 37.5048 9.148 37.5048 10.708C37.5048 12.268 37.0308 13.54 36.0828 14.524C35.1348 15.508 33.9108 16 32.4108 16H28.0548ZM30.8448 5.992V15.388H32.4108C32.7948 15.388 33.1668 15.304 33.5268 15.136C33.8988 14.956 34.2528 14.692 34.5888 14.344C34.9248 13.996 35.1948 13.51 35.3988 12.886C35.6028 12.262 35.7048 11.542 35.7048 10.726C35.7048 9.166 35.3508 7.99 34.6428 7.198C33.9468 6.394 33.1308 5.992 32.1948 5.992H30.8448ZM40.8947 10.6C40.8947 11.392 41.0027 12.154 41.2187 12.886C41.4467 13.606 41.8127 14.236 42.3167 14.776C42.8327 15.304 43.4447 15.568 44.1527 15.568C44.8607 15.568 45.4547 15.316 45.9347 14.812C46.4267 14.308 46.7687 13.72 46.9607 13.048C47.1647 12.364 47.2667 11.644 47.2667 10.888C47.2667 10.108 47.1527 9.352 46.9247 8.62C46.6967 7.876 46.3247 7.24 45.8087 6.712C45.3047 6.172 44.7047 5.902 44.0087 5.902C43.4687 5.902 42.9887 6.046 42.5687 6.334C42.1607 6.622 41.8367 7.006 41.5967 7.486C41.3687 7.954 41.1947 8.452 41.0747 8.98C40.9547 9.508 40.8947 10.048 40.8947 10.6ZM39.0947 10.744C39.0947 9.244 39.5627 7.96 40.4987 6.892C41.4347 5.824 42.6287 5.29 44.0807 5.29C45.5327 5.29 46.7267 5.824 47.6627 6.892C48.5987 7.96 49.0667 9.244 49.0667 10.744C49.0667 12.244 48.5927 13.528 47.6447 14.596C46.7087 15.652 45.5207 16.18 44.0807 16.18C42.6167 16.18 41.4167 15.652 40.4807 14.596C39.5567 13.54 39.0947 12.256 39.0947 10.744ZM50.4669 16V15.622C51.1149 15.622 51.4929 15.502 51.6009 15.262V6.208C51.4929 5.968 51.1149 5.848 50.4669 5.848V5.47H54.5349C56.0229 5.47 57.1509 5.74 57.9189 6.28C58.6869 6.82 59.0709 7.438 59.0709 8.134C59.0709 8.794 58.8729 9.376 58.4769 9.88C58.0809 10.372 57.4929 10.732 56.7129 10.96L59.1069 15.244C59.2269 15.496 59.6229 15.622 60.2949 15.622V16H59.5209C58.6809 16 58.1349 15.952 57.8829 15.856C57.6309 15.76 57.3789 15.496 57.1269 15.064L54.9489 11.212H53.2569V15.262C53.3649 15.502 53.7429 15.622 54.3909 15.622V16H50.4669ZM53.2569 6.082V10.6H54.7509C55.7109 10.6 56.3709 10.414 56.7309 10.042C57.0909 9.67 57.2709 9.04 57.2709 8.152C57.2709 7.492 57.0669 6.982 56.6589 6.622C56.2629 6.262 55.5549 6.082 54.5349 6.082H53.2569ZM60.9259 16V15.622C61.5739 15.622 61.9519 15.502 62.0599 15.262V6.208C61.9519 5.968 61.5739 5.848 60.9259 5.848V5.47H64.8499V5.848C64.2019 5.848 63.8239 5.968 63.7159 6.208V15.262C63.8239 15.502 64.2019 15.622 64.8499 15.622V16H60.9259Z" fill="#F67D6C"/>
<path d="M0.176 26.536V26.368C0.464 26.368 0.632 26.3147 0.68 26.208V21.968C0.68 21.968 0.512 21.9547 0.176 21.928V21.744C0.277333 21.744 0.474667 21.688 0.768 21.576C1.06667 21.4587 1.27733 21.4 1.4 21.4V21.664C1.656 21.488 1.976 21.4 2.36 21.4C2.536 21.4 2.70933 21.432 2.88 21.496C3.056 21.5547 3.22933 21.6507 3.4 21.784C3.576 21.912 3.71733 22.104 3.824 22.36C3.936 22.616 3.992 22.9147 3.992 23.256C3.992 23.848 3.82667 24.3013 3.496 24.616C3.16533 24.9253 2.728 25.08 2.184 25.08C1.87467 25.08 1.61333 25.0213 1.4 24.904V26.208C1.448 26.3147 1.616 26.368 1.904 26.368V26.536H0.176ZM1.4 24.648C1.60267 24.7547 1.848 24.808 2.136 24.808C2.42933 24.808 2.68533 24.672 2.904 24.4C3.12267 24.128 3.232 23.7467 3.232 23.256C3.232 22.9307 3.136 22.5867 2.944 22.224C2.75733 21.856 2.536 21.672 2.28 21.672C1.912 21.672 1.61867 21.7573 1.4 21.928V24.648ZM6.98469 23.016C6.98469 23.624 7.09935 24.08 7.32869 24.384C7.56335 24.688 7.86202 24.84 8.22469 24.84C8.51269 24.84 8.74469 24.712 8.92069 24.456C9.09669 24.1947 9.18469 23.8613 9.18469 23.456C9.18469 22.2507 8.76602 21.648 7.92869 21.648C7.64602 21.648 7.41669 21.784 7.24069 22.056C7.07002 22.3227 6.98469 22.6427 6.98469 23.016ZM8.12069 25.08C7.52335 25.08 7.05669 24.9067 6.72069 24.56C6.38469 24.208 6.21669 23.7467 6.21669 23.176C6.21669 22.6587 6.36869 22.2347 6.67269 21.904C6.97669 21.568 7.44069 21.4 8.06469 21.4C8.69402 21.4 9.16602 21.568 9.48069 21.904C9.79535 22.2347 9.95269 22.6907 9.95269 23.272C9.95269 23.7893 9.80069 24.2213 9.49669 24.568C9.19802 24.9093 8.73935 25.08 8.12069 25.08ZM12.1121 25V24.832C12.4001 24.832 12.5681 24.7787 12.6161 24.672V21.968C12.2854 21.9413 12.1174 21.928 12.1121 21.928V21.744C12.2134 21.744 12.4107 21.688 12.7041 21.576C13.0027 21.4587 13.2134 21.4 13.3361 21.4V21.752C13.6027 21.5173 13.8667 21.4 14.1281 21.4C14.3681 21.4 14.5681 21.4453 14.7281 21.536C14.8934 21.6267 14.9761 21.728 14.9761 21.84C14.9761 22.032 14.8694 22.128 14.6561 22.128C14.5441 22.128 14.4427 22.0533 14.3521 21.904C14.2614 21.7493 14.1574 21.672 14.0401 21.672C13.8321 21.672 13.5974 21.7867 13.3361 22.016V24.672C13.3841 24.7787 13.5521 24.832 13.8401 24.832V25H12.1121ZM18.0603 20.32V21.48H18.7483V21.72H18.0603V24.264C18.0603 24.4293 18.0896 24.5573 18.1483 24.648C18.207 24.7333 18.3163 24.776 18.4763 24.776C18.5723 24.776 18.6683 24.7307 18.7643 24.64C18.8656 24.544 18.935 24.4133 18.9723 24.248L19.1643 24.344C19.0523 24.8347 18.7323 25.08 18.2043 25.08C17.5963 25.08 17.2923 24.7867 17.2923 24.2V21.72H16.7323V21.48C16.983 21.48 17.2096 21.376 17.4123 21.168C17.615 20.96 17.7163 20.6773 17.7163 20.32H18.0603ZM23.5404 20.432C23.5404 20.5227 23.5084 20.5947 23.4444 20.648C23.3857 20.7013 23.3084 20.728 23.2124 20.728C23.1217 20.728 23.0524 20.7013 23.0044 20.648C22.9617 20.5893 22.935 20.528 22.9244 20.464C22.919 20.4 22.895 20.3413 22.8524 20.288C22.815 20.2293 22.7537 20.2 22.6684 20.2C22.567 20.2 22.4817 20.2773 22.4124 20.432C22.3484 20.5867 22.3164 20.808 22.3164 21.096V21.48H22.8124V21.72H22.3164V24.672C22.3644 24.7787 22.5324 24.832 22.8204 24.832V25H21.0924V24.832C21.3804 24.832 21.5484 24.7787 21.5964 24.672V21.72H21.1964V21.48H21.5964V21.208C21.5964 20.7707 21.687 20.4533 21.8684 20.256C22.0497 20.0587 22.2897 19.96 22.5884 19.96C22.903 19.96 23.1404 20.008 23.3004 20.104C23.4604 20.2 23.5404 20.3093 23.5404 20.432ZM25.705 23.016C25.705 23.624 25.8197 24.08 26.049 24.384C26.2837 24.688 26.5823 24.84 26.945 24.84C27.233 24.84 27.465 24.712 27.641 24.456C27.817 24.1947 27.905 23.8613 27.905 23.456C27.905 22.2507 27.4863 21.648 26.649 21.648C26.3663 21.648 26.137 21.784 25.961 22.056C25.7903 22.3227 25.705 22.6427 25.705 23.016ZM26.841 25.08C26.2437 25.08 25.777 24.9067 25.441 24.56C25.105 24.208 24.937 23.7467 24.937 23.176C24.937 22.6587 25.089 22.2347 25.393 21.904C25.697 21.568 26.161 21.4 26.785 21.4C27.4143 21.4 27.8863 21.568 28.201 21.904C28.5157 22.2347 28.673 22.6907 28.673 23.272C28.673 23.7893 28.521 24.2213 28.217 24.568C27.9183 24.9093 27.4597 25.08 26.841 25.08ZM30.7211 25V24.832C31.0091 24.832 31.1771 24.7787 31.2251 24.672V20.528C30.8945 20.5013 30.7265 20.488 30.7211 20.488V20.304C30.8225 20.304 31.0198 20.248 31.3131 20.136C31.6118 20.0187 31.8225 19.96 31.9451 19.96V24.672C31.9931 24.7787 32.1611 24.832 32.4491 24.832V25H30.7211ZM34.4636 25V24.832C34.7516 24.832 34.9196 24.7787 34.9676 24.672V21.968C34.637 21.9413 34.469 21.928 34.4636 21.928V21.744C34.565 21.744 34.7623 21.688 35.0556 21.576C35.3543 21.4587 35.565 21.4 35.6876 21.4V24.672C35.7356 24.7787 35.9036 24.832 36.1916 24.832V25H34.4636ZM35.3036 20.888C35.1863 20.888 35.0823 20.8453 34.9916 20.76C34.9063 20.6693 34.8636 20.5547 34.8636 20.416C34.8636 20.2933 34.901 20.1867 34.9756 20.096C35.0556 20.0053 35.157 19.96 35.2796 19.96C35.397 19.96 35.501 20.0053 35.5916 20.096C35.6823 20.1867 35.7276 20.3013 35.7276 20.44C35.7276 20.5627 35.6876 20.6693 35.6076 20.76C35.5276 20.8453 35.4263 20.888 35.3036 20.888ZM38.9972 23.016C38.9972 23.624 39.1119 24.08 39.3412 24.384C39.5759 24.688 39.8745 24.84 40.2372 24.84C40.5252 24.84 40.7572 24.712 40.9332 24.456C41.1092 24.1947 41.1972 23.8613 41.1972 23.456C41.1972 22.2507 40.7785 21.648 39.9412 21.648C39.6585 21.648 39.4292 21.784 39.2532 22.056C39.0825 22.3227 38.9972 22.6427 38.9972 23.016ZM40.1332 25.08C39.5359 25.08 39.0692 24.9067 38.7332 24.56C38.3972 24.208 38.2292 23.7467 38.2292 23.176C38.2292 22.6587 38.3812 22.2347 38.6852 21.904C38.9892 21.568 39.4532 21.4 40.0772 21.4C40.7065 21.4 41.1785 21.568 41.4932 21.904C41.8079 22.2347 41.9652 22.6907 41.9652 23.272C41.9652 23.7893 41.8132 24.2213 41.5092 24.568C41.2105 24.9093 40.7519 25.08 40.1332 25.08ZM49.0544 24.84C49.2038 24.84 49.3664 24.792 49.5424 24.696C49.7238 24.6 49.8144 24.456 49.8144 24.264C49.8144 23.9547 49.4971 23.688 48.8624 23.464C48.7078 23.4107 48.5798 23.36 48.4784 23.312C48.3824 23.264 48.2758 23.1973 48.1584 23.112C48.0411 23.0267 47.9531 22.9227 47.8944 22.8C47.8358 22.6773 47.8064 22.5333 47.8064 22.368C47.8064 22.0693 47.9158 21.8347 48.1344 21.664C48.3531 21.488 48.6171 21.4 48.9264 21.4C49.1078 21.4 49.2918 21.44 49.4784 21.52C49.6704 21.6 49.7798 21.64 49.8064 21.64C49.8704 21.64 49.9024 21.5867 49.9024 21.48H50.0864V22.44H49.9104C49.8784 22.216 49.7691 22.0267 49.5824 21.872C49.4011 21.7173 49.1904 21.64 48.9504 21.64C48.7798 21.64 48.6358 21.68 48.5184 21.76C48.4064 21.84 48.3504 21.9493 48.3504 22.088C48.3504 22.168 48.3664 22.2427 48.3984 22.312C48.4304 22.376 48.4624 22.4293 48.4944 22.472C48.5264 22.5093 48.5851 22.552 48.6704 22.6C48.7611 22.648 48.8278 22.6827 48.8704 22.704C48.9184 22.72 49.0011 22.7493 49.1184 22.792C49.2411 22.8347 49.3238 22.864 49.3664 22.88C49.6438 22.9867 49.8811 23.1387 50.0784 23.336C50.2758 23.528 50.3744 23.752 50.3744 24.008C50.3744 24.3333 50.2438 24.5947 49.9824 24.792C49.7211 24.984 49.3904 25.08 48.9904 25.08C48.7984 25.08 48.6118 25.0347 48.4304 24.944C48.2491 24.8533 48.1478 24.808 48.1264 24.808C48.0944 24.808 48.0571 24.8293 48.0144 24.872C47.9718 24.9147 47.9504 24.9573 47.9504 25H47.7584V23.872H47.9344C47.9718 24.144 48.0971 24.3733 48.3104 24.56C48.5291 24.7467 48.7771 24.84 49.0544 24.84ZM52.4886 25V24.832C52.7766 24.832 52.9446 24.7787 52.9926 24.672V21.968C52.662 21.9413 52.494 21.928 52.4886 21.928V21.744C52.59 21.744 52.7873 21.688 53.0806 21.576C53.3793 21.4587 53.59 21.4 53.7126 21.4V24.672C53.7606 24.7787 53.9286 24.832 54.2166 24.832V25H52.4886ZM53.3286 20.888C53.2113 20.888 53.1073 20.8453 53.0166 20.76C52.9313 20.6693 52.8886 20.5547 52.8886 20.416C52.8886 20.2933 52.926 20.1867 53.0006 20.096C53.0806 20.0053 53.182 19.96 53.3046 19.96C53.422 19.96 53.526 20.0053 53.6166 20.096C53.7073 20.1867 53.7526 20.3013 53.7526 20.44C53.7526 20.5627 53.7126 20.6693 53.6326 20.76C53.5526 20.8453 53.4513 20.888 53.3286 20.888ZM57.4213 20.32V21.48H58.1093V21.72H57.4213V24.264C57.4213 24.4293 57.4506 24.5573 57.5093 24.648C57.5679 24.7333 57.6773 24.776 57.8373 24.776C57.9333 24.776 58.0293 24.7307 58.1253 24.64C58.2266 24.544 58.2959 24.4133 58.3333 24.248L58.5253 24.344C58.4133 24.8347 58.0933 25.08 57.5653 25.08C56.9573 25.08 56.6533 24.7867 56.6533 24.2V21.72H56.0933V21.48C56.3439 21.48 56.5706 21.376 56.7733 21.168C56.9759 20.96 57.0773 20.6773 57.0773 20.32H57.4213ZM61.2861 23.072C61.2914 23.52 61.4194 23.9173 61.6701 24.264C61.9261 24.6053 62.2114 24.776 62.5261 24.776C62.9901 24.776 63.3634 24.6 63.6461 24.248L63.8381 24.344C63.6834 24.6 63.4807 24.7867 63.2301 24.904C62.9847 25.0213 62.6594 25.08 62.2541 25.08C62.0514 25.08 61.8567 25.0507 61.6701 24.992C61.4834 24.928 61.2994 24.8267 61.1181 24.688C60.9367 24.544 60.7927 24.3333 60.6861 24.056C60.5794 23.7787 60.5261 23.448 60.5261 23.064C60.5261 22.5947 60.6701 22.2 60.9581 21.88C61.2514 21.56 61.6567 21.4 62.1741 21.4C62.7394 21.4 63.1607 21.56 63.4381 21.88C63.7154 22.1947 63.8541 22.592 63.8541 23.072H61.2861ZM61.2941 22.824H63.0701C63.0381 22.44 62.9554 22.1467 62.8221 21.944C62.6941 21.7413 62.4674 21.64 62.1421 21.64C61.9554 21.64 61.7741 21.7493 61.5981 21.968C61.4274 22.1867 61.3261 22.472 61.2941 22.824Z" fill="#F67D6C"/>
</svg>
