<svg width="400" height="686" viewBox="0 0 400 686" fill="none" xmlns="http://www.w3.org/2000/svg">
<path d="M0 98.9574C0 44.3048 44.3047 0 98.9573 0V0C153.61 0 197.915 44.3047 197.915 98.9573L197.915 224.986L0 224.986L0 98.9574Z" fill="white"/>
<path d="M202.26 324.876C202.26 379.481 246.525 423.747 301.13 423.747V423.747C355.734 423.747 400 379.481 400 324.877V230.507L202.26 230.507L202.26 324.876Z" fill="white"/>
<path d="M221.469 455.493H379.661V369.915H221.469V455.493Z" fill="white"/>
<path d="M0 559.972C0 505.319 44.3047 461.014 98.9573 461.014V461.014C153.61 461.014 197.915 505.319 197.915 559.971L197.915 686H0L0 559.972Z" fill="white"/>
<rect x="202.26" y="459.634" width="197.74" height="224.986" rx="98.8701" fill="white"/>
<rect y="230.507" width="197.74" height="224.986" rx="98.8701" fill="white"/>
<rect x="202.26" width="197.74" height="224.986" rx="98.8701" fill="white"/>
</svg>
