<svg width="728" height="546" viewBox="0 0 728 546" fill="none" xmlns="http://www.w3.org/2000/svg">
<path d="M244 394C244 460.274 297.726 514 364 514V514C430.274 514 484 460.274 484 394L484 274L244 274L244 394Z" fill="white"/>
<path d="M264 546L464 546V443L264 443V546Z" fill="white"/>
<path d="M0 120C0 53.7258 53.7258 0 120 0V0C186.274 0 240 53.7258 240 120L240 270L0 270L0 120Z" fill="white"/>
<path d="M488 120C488 53.7258 541.726 0 608 0V0C674.274 0 728 53.7258 728 120L728 270L488 270V120Z" fill="white"/>
<rect x="728" y="274" width="272" height="240" rx="120" transform="rotate(90 728 274)" fill="white"/>
<rect x="484" width="270" height="240" rx="120" transform="rotate(90 484 0)" fill="white"/>
<rect x="240" y="274" width="272" height="240" rx="120" transform="rotate(90 240 274)" fill="white"/>
</svg>
