<svg width="330" height="528" viewBox="0 0 330 528" fill="none" xmlns="http://www.w3.org/2000/svg">
<path d="M254.577 0.977539C206.21 0.977539 167 40.1872 167 88.5548V88.5548C167 136.922 206.21 176.132 254.577 176.132L330 176.132V0.977539L254.577 0.977539Z" fill="white"/>
<path d="M196.239 178C244.607 178 283.816 217.21 283.816 265.577V265.577C283.816 313.945 244.607 353.155 196.239 353.155H175.15V178H196.239Z" fill="white"/>
<path d="M330 215V315H268V215H330Z" fill="white"/>
<path d="M254.577 352.846C206.21 352.846 167 392.055 167 440.423V440.423C167 488.791 206.21 528 254.577 528H330V352.846H254.577Z" fill="white"/>
<path d="M75.4227 0C123.79 0 163 39.2097 163 87.5773V87.5773C163 135.945 123.79 175.155 75.4228 175.155L-9.15527e-05 175.155L-9.15527e-05 0L75.4227 0Z" fill="white"/>
<path d="M133.761 177.022C85.3933 177.022 46.1836 216.232 46.1836 264.6V264.6C46.1836 312.967 85.3933 352.177 133.761 352.177H154.85V177.022H133.761Z" fill="white"/>
<path d="M0 214.022L0 314.022H62L62 214.022H0Z" fill="white"/>
<path d="M75.4227 351.868C123.79 351.868 163 391.078 163 439.445V439.445C163 487.813 123.79 527.023 75.4228 527.023H-9.15527e-05L-9.15527e-05 351.868H75.4227Z" fill="white"/>
</svg>
