<svg width="300" height="187" viewBox="0 0 300 187" fill="none" xmlns="http://www.w3.org/2000/svg">
<path d="M298.646 144.26C298.646 116.852 276.427 94.6328 249.018 94.6328V94.6328C221.61 94.6328 199.391 116.852 199.391 144.26V187H298.646V144.26Z" fill="white"/>
<path d="M198.333 111.202C198.333 138.61 176.114 160.829 148.706 160.829V160.829C121.298 160.829 99.0788 138.61 99.0788 111.202V99.2513H198.333V111.202Z" fill="white"/>
<path d="M177.366 186.999H120.7V151.866H177.366V186.999Z" fill="white"/>
<path d="M99.2539 144.26C99.2539 116.852 77.0351 94.6328 49.6268 94.6328V94.6328C22.2185 94.6328 -0.000312805 116.852 -0.000312805 144.26L-0.000312805 187H99.2539L99.2539 144.26Z" fill="white"/>
<path d="M299.199 42.7401C299.199 70.1484 276.98 92.3672 249.572 92.3672V92.3672C222.164 92.3672 199.945 70.1484 199.945 42.7401V0.000465393L299.199 0.000465393V42.7401Z" fill="white"/>
<path d="M198.887 75.798C198.887 48.3897 176.668 26.1709 149.26 26.1709V26.1709C121.851 26.1709 99.6325 48.3897 99.6325 75.798V87.7487H198.887V75.798Z" fill="white"/>
<path d="M177.92 0.000976562L121.253 0.000976562V35.1343L177.92 35.1343V0.000976562Z" fill="white"/>
<path d="M99.8076 42.7401C99.8076 70.1484 77.5888 92.3672 50.1805 92.3672V92.3672C22.7722 92.3672 0.553398 70.1484 0.553398 42.7401L0.553398 0.000465393L99.8076 0.000465393L99.8076 42.7401Z" fill="white"/>
</svg>
